<svg width="200" height="226.11406" xmlns="http://www.w3.org/2000/svg" version="1.1">

 <g>
  <title>Layer 1</title>
  <path fill-rule="nonzero" fill="#7d8990" id="path84" d="m141.75539,47.46294l0,36.89704c0,1.83664 -1.57975,4.86494 -3.4164,6.69613l-37.58032,37.58031c-0.91833,0.91833 -1.85852,1.36657 -2.4598,1.36657c-0.60129,0 -0.9566,-0.44824 -0.9566,-1.36657l0,4.09968c0,1.83665 1.57975,3.4164 3.4164,3.4164l81.85677,0c1.83665,0 3.41639,-1.57975 3.41639,-3.4164l0,-81.99343c0,-1.83666 -1.57974,-3.27973 -3.41639,-3.27973l-40.86005,0zm-52.06583,85.27316c0,1.83665 -1.58521,3.4164 -3.41639,3.4164l-40.86007,0l0,44.54975c0,0.91832 0.36077,1.36656 0.95659,1.36656c0.59583,0 1.40483,-0.44824 2.32315,-1.36656l37.58033,-37.58032c1.83118,-1.83665 3.41639,-4.85948 3.41639,-6.69613l0,-3.6897z"/>
  <path fill-rule="nonzero" fill="#00536b" id="path88" d="m140.79879,0.99999c-0.60404,0 -1.54147,0.44823 -2.4598,1.36656l-37.58032,37.71698c-1.83118,1.83119 -3.4164,4.72282 -3.4164,6.55948l0,4.09966l0,77.89375c0,1.83666 1.58522,1.83666 3.4164,0l37.58032,-37.58031c1.83665,-1.83665 3.4164,-4.85949 3.4164,-6.69613l0,-36.89704l0,-45.09639c0,-0.91833 -0.35247,-1.36656 -0.9566,-1.36656zm-136.3824,46.46295c-1.83665,0 -3.41639,1.44307 -3.41639,3.27973l0,81.99343c0,1.83665 1.57974,3.4164 3.41639,3.4164l81.85678,0c1.83665,0 3.41639,-1.57975 3.41639,-3.4164l0,-81.99343c0,-1.83666 -1.57974,-3.27973 -3.41639,-3.27973l-81.85678,0z"/>
  <path fill-rule="nonzero" fill="#00536b" id="path100" d="m100.75867,47.46294c-1.83665,0 -3.4164,1.57974 -3.4164,3.41639l0,77.75709c0,0.91833 0.35553,1.36657 0.9566,1.36657c0.60128,0 1.54147,-0.44824 2.4598,-1.36657l37.58032,-37.58031c1.83665,-1.83665 3.4164,-4.86494 3.4164,-6.69613l0,-36.89704l-40.99672,0zm-12.0257,5.60288c-0.60675,0 -1.54148,0.4537 -2.4598,1.36655l-37.58033,37.71698c-1.83118,1.86945 -3.27974,4.72829 -3.27974,6.55947l0,37.44368l40.86007,0c1.83665,0 3.41639,-1.57975 3.41639,-3.4164l0,-78.30373c0,-0.91285 -0.35553,-1.36655 -0.95659,-1.36655z"/>
  <path fill-rule="nonzero" fill="#5d6971" id="path238" d="m393.74851,47.59959c-0.62862,0 -1.20257,0.14737 -1.63987,0.54662c-0.44824,0.4045 -0.68327,0.88007 -0.68327,1.50322l0,84.17992c0,0.61768 0.23483,1.19163 0.68327,1.63986c0.4373,0.42637 1.01125,0.68329 1.63987,0.68329l20.22504,0c4.14887,0 8.17202,-0.62862 11.88905,-1.77654c3.71704,-1.1643 6.91478,-2.7659 9.70256,-4.9196c2.79323,-2.18102 4.9688,-4.87041 6.55947,-8.06268c1.59067,-3.18681 2.4598,-6.8164 2.4598,-10.79581c0,-2.74951 -0.47556,-5.3569 -1.50321,-7.78937c-1.01672,-2.43794 -2.37781,-4.56976 -4.09967,-6.42283c-1.73279,-1.86397 -3.7553,-3.31252 -6.01285,-4.50963c-2.25209,-1.1971 -4.64083,-2.01703 -7.1061,-2.4598c1.77106,-0.53023 3.55305,-1.39935 5.46623,-2.59647c1.90772,-1.19163 3.73344,-2.64565 5.32957,-4.37297c1.59614,-1.72734 2.90257,-3.71157 3.96301,-5.8762c1.06592,-2.1701 1.63987,-4.4495 1.63987,-6.83279c0,-3.80995 -0.71607,-7.06236 -2.18649,-9.8392c-1.47041,-2.79325 -3.42732,-5.15466 -5.87619,-6.96944c-2.43794,-1.80932 -5.24211,-3.21414 -8.47266,-4.09968c-3.236,-0.88006 -6.64693,-1.2299 -10.11252,-1.2299l-21.86491,0zm61.35841,0c-0.61768,0 -1.09871,0.15305 -1.50321,0.54662c-0.38832,0.39926 -0.4537,0.88553 -0.27331,1.50322l16.94531,84.17992c0.18016,0.60675 0.60675,1.19163 1.09325,1.63986c0.48649,0.43162 1.02765,0.68329 1.63987,0.68329l6.69612,0c0.62316,0 1.15338,-0.25145 1.63987,-0.68329c0.47556,-0.44823 0.77621,-1.03311 0.95659,-1.63986l14.48551,-74.20406l14.62215,74.20406c0.17492,0.60675 0.4701,1.19163 0.95659,1.63986c0.4865,0.43162 1.02765,0.68329 1.63987,0.68329l6.69614,0c0.62861,0 1.19164,-0.25145 1.63987,-0.68329c0.44822,-0.44823 0.7762,-1.03311 0.95658,-1.63986l16.94531,-84.17992c0.18585,-0.61769 0.0765,-1.10418 -0.27331,-1.50322c-0.36646,-0.39357 -0.75434,-0.54662 -1.36655,-0.54662l-5.32958,0c-1.3283,0 -2.24662,0.63409 -2.59645,2.04984l-13.11896,74.3407l-14.62215,-74.3407c-0.35554,-1.41575 -1.11512,-2.04984 -2.45981,-2.04984l-6.69613,0c-1.41028,0 -2.25208,0.63409 -2.59646,2.04984l-14.48551,74.3407l-13.2556,-74.3407c-0.36077,-1.41575 -1.32282,-2.04984 -2.73311,-2.04984l-5.60289,0zm-53.979,7.78938l14.4855,0c4.97427,0 9.04661,1.31189 12.16236,3.96301c3.09935,2.65112 4.6463,6.28069 4.6463,10.7958c0,2.30129 -0.5357,4.34566 -1.50322,6.28616c-0.98392,1.94598 -2.22475,3.65144 -3.82635,5.05627c-1.59067,1.42122 -3.43279,2.48166 -5.46623,3.27974c-2.04437,0.80353 -4.21447,1.22989 -6.42282,1.22989l-14.07554,0l0,-30.61087zm0,38.2636l14.4855,0c5.59196,0 10.15079,1.54147 13.66557,4.50964c3.49293,2.96269 5.19293,6.88744 5.19293,12.0257c0,2.66205 -0.38265,5.16012 -1.36657,7.37941c-0.97845,2.20835 -2.36687,4.14886 -4.09967,5.73953c-1.72732,1.59615 -3.70611,2.80418 -6.01285,3.6897c-2.30675,0.89647 -4.81028,1.36657 -7.37941,1.36657l-14.4855,0l0,-34.71055zm-117.52391,62.72496l0,20.22505c0,0.54115 0.0306,1.14244 0.13643,1.63987c0.0984,0.49743 0.28994,0.85273 0.54662,1.2299c0.2567,0.36602 0.66689,0.73794 1.09325,0.95659c0.42637,0.2239 0.96752,0.27331 1.63987,0.27331c0.3389,0 0.68875,-0.0218 1.09325,-0.13643c0.4045,-0.1093 0.66141,-0.30087 0.81994,-0.40976l-0.68329,-1.91317l-0.54662,0.40975l-0.54663,0.13643c-0.42636,0 -0.78166,-0.26237 -0.95658,-0.68327c-0.18017,-0.43162 -0.27332,-0.9402 -0.27332,-1.63987l0,-20.0884l-2.32314,0l0.00022,0zm87.86962,0l0,23.91476l2.32314,0l0,-12.16236l0.40975,-0.81993l0.81994,-1.09325c0.36645,-0.34459 0.88553,-0.70515 1.36656,-0.95659c0.48102,-0.26238 0.96752,-0.40975 1.50321,-0.40975c0.54115,0 0.95113,0.16399 1.36655,0.40975c0.41544,0.24575 0.8254,0.56302 1.09325,0.95659c0.27332,0.38832 0.39925,0.88553 0.54662,1.36655c0.14738,0.4865 0.27332,0.91287 0.27332,1.36657l0,11.34242l2.32315,0l0,-11.61574c0,-0.69421 -0.0494,-1.36655 -0.27332,-2.04984c-0.2239,-0.68874 -0.65595,-1.36655 -1.09325,-1.91318c-0.43161,-0.53569 -0.96752,-0.90739 -1.63987,-1.2299c-0.67234,-0.32797 -1.42668,-0.54662 -2.32314,-0.54662c-0.58488,0 -1.13698,0.17492 -1.63987,0.40975c-0.50289,0.24051 -0.97845,0.50289 -1.36655,0.81993c-0.39358,0.31136 -0.72155,0.65595 -0.9566,0.95659l-0.40975,0.68328l0,-9.42925l-2.32314,0l0,0.00022zm46.73625,0l0,23.91476l2.32315,0l0,-12.16236l0.40975,-0.81993l0.81993,-1.09325c0.3717,-0.34459 0.74341,-0.70515 1.2299,-0.95659c0.48104,-0.26238 1.10419,-0.40975 1.63987,-0.40975c0.54116,0 0.94566,0.16399 1.36656,0.40975c0.41543,0.24575 0.8254,0.56302 1.09325,0.95659c0.26762,0.38832 0.39925,0.88553 0.54662,1.36655c0.14211,0.4865 0.27331,0.91287 0.27331,1.36657l0,11.34242l2.32314,0l0,-11.61574c0,-0.69421 -0.18016,-1.36655 -0.40975,-2.04984c-0.21865,-0.68874 -0.51382,-1.36655 -0.95658,-1.91318c-0.4373,-0.53569 -0.96752,-0.90739 -1.63987,-1.2299c-0.67235,-0.32797 -1.41575,-0.54662 -2.32314,-0.54662c-0.57943,0 -1.13698,0.17492 -1.63987,0.40975c-0.5029,0.24051 -0.97846,0.50289 -1.36657,0.81993c-0.39356,0.31136 -0.72153,0.65595 -0.95658,0.95659l-0.40975,0.68328l0,-9.42925l-2.32315,0l-0.00022,0.00022zm35.25717,0l0,20.22505c0,0.54115 0.0262,1.14244 0.13644,1.63987c0.0931,0.49743 0.28424,0.85273 0.54662,1.2299c0.2567,0.36602 0.53022,0.73794 0.95659,0.95659c0.42637,0.2239 0.96753,0.27331 1.63987,0.27331c0.33367,0 0.81993,-0.0218 1.2299,-0.13643c0.39926,-0.1093 0.66688,-0.30087 0.81994,-0.40976l-0.68306,-1.91317l-0.54663,0.40975l-0.68327,0.13643c-0.42068,0 -0.64501,-0.26237 -0.81993,-0.68327c-0.18585,-0.43162 -0.27332,-0.9402 -0.27332,-1.63987l0,-20.0884l-2.32315,0zm-223.15877,1.50322l0,22.41154l5.32957,0c1.39389,0 2.63473,-0.34459 3.82636,-0.95659c1.19164,-0.60129 2.27942,-1.4103 3.14309,-2.4598c0.86365,-1.05499 1.5524,-2.25756 2.04983,-3.68971c0.49196,-1.42669 0.68328,-3.00642 0.68328,-4.64629c0,-1.6836 -0.30611,-3.18135 -0.81994,-4.50964c-0.51929,-1.3283 -1.1315,-2.35595 -2.04984,-3.27974c-0.91832,-0.91833 -2.03343,-1.69453 -3.27972,-2.1865c-1.2463,-0.49195 -2.66206,-0.68327 -4.09968,-0.68327l-4.78295,0zm88.82621,0l0,22.41154l2.4598,0l0,-10.65915l9.15593,0l0,10.65915l2.45981,0l0,-22.41154l-2.45981,0l0,9.70255l-9.15593,0l0,-9.70255l-2.4598,0zm-86.36641,1.91317l2.73312,0c0.96752,0 1.84212,0.27857 2.73311,0.68329c0.88553,0.4045 1.6508,0.88006 2.32315,1.63986c0.67235,0.74887 1.23537,1.65081 1.63987,2.73312c0.4045,1.08231 0.68327,2.31768 0.68327,3.68971c0,1.37202 -0.17492,2.64565 -0.54662,3.82636c-0.36645,1.1807 -0.98938,2.26848 -1.63987,3.14307c-0.65048,0.88007 -1.43215,1.54148 -2.32315,2.04984c-0.88552,0.5029 -1.72185,0.81993 -2.73311,0.81993l-2.86977,0l0,-18.58518zm39.35685,3.14309c-0.59035,0 -1.20257,0.14212 -1.77652,0.27331c-0.57395,0.13644 -1.16432,0.23483 -1.63987,0.40975c-0.4701,0.18585 -0.75435,0.38832 -1.09325,0.54662l-0.68328,0.27332l0.68328,1.91317l0.68328,-0.40975c0.32272,-0.16967 0.68874,-0.2405 1.09324,-0.40975c0.4045,-0.16398 0.78168,-0.40974 1.2299,-0.54661c0.4537,-0.13119 0.8746,-0.13645 1.2299,-0.13645c1.21351,0 2.1373,0.33891 2.73312,1.09325c0.59035,0.74887 0.81994,1.6344 0.81994,2.73312l0,1.09324l-3.27974,0.81993c-0.65595,0.12551 -1.2955,0.36603 -2.04984,0.68329c-0.74887,0.31136 -1.54147,0.63408 -2.18649,1.09324c-0.63955,0.44276 -1.09325,1.03312 -1.50321,1.63987c-0.42068,0.60675 -0.68327,1.19711 -0.68327,1.91318c0,1.50868 0.55208,2.71672 1.5032,3.55305c0.95659,0.83087 2.20836,1.2299 3.68971,1.2299c0.62861,0 1.08778,-0.0394 1.63987,-0.27331c0.55208,-0.23527 1.07685,-0.64502 1.50321,-0.95659c0.42636,-0.31705 0.83634,-0.50836 1.09324,-0.81993l0.40975,-0.68329l0,2.32315l2.1865,0l0,-11.61573c0,-1.83665 -0.48103,-3.2852 -1.50322,-4.23634c-1.02218,-0.95658 -2.3942,-1.5032 -4.09967,-1.5032l0.00022,-0.00044zm25.96459,0c-1.03312,0 -1.95692,0.39881 -2.73312,0.95659c-0.7762,0.56849 -1.38295,1.20803 -1.91318,2.04983c-0.52476,0.8418 -0.96206,1.7492 -1.22991,2.73312c-0.2733,0.98939 -0.40974,1.90772 -0.40974,2.73312c0,1.05497 0.0713,2.18649 0.27331,3.27973c0.20203,1.08778 0.59035,2.09357 1.09325,3.00643c0.50835,0.90739 1.1971,1.618 2.04984,2.18649c0.85272,0.57942 1.95144,0.81993 3.27972,0.81993c0.62862,0 1.20258,-0.035 1.77654,-0.13643c0.57395,-0.0985 1.1807,-0.279 1.63986,-0.40976c0.45916,-0.13643 0.77074,-0.2733 1.09324,-0.40975l0.68307,-0.2733l-0.68329,-1.91318l-0.68327,0.40974c-0.29518,0.14738 -0.70515,0.27332 -1.09325,0.40975c-0.39357,0.1312 -0.76527,0.17492 -1.2299,0.27332c-0.45915,0.10363 -0.89645,0.27331 -1.36655,0.27331c-0.78714,0 -1.48682,-0.2462 -2.04984,-0.68328c-0.56302,-0.4373 -1.00578,-0.97845 -1.36655,-1.63987c-0.36078,-0.66688 -0.65049,-1.42122 -0.81994,-2.18649c-0.16924,-0.75981 -0.27331,-1.51415 -0.27331,-2.1865l10.11252,0l0,-0.81993c0,-0.89099 -0.0603,-1.88038 -0.27331,-2.86976c-0.21865,-0.9894 -0.61222,-1.89679 -1.09325,-2.73312c-0.4865,-0.8254 -1.1315,-1.50868 -1.91317,-2.04984c-0.79261,-0.53568 -1.72187,-0.81993 -2.86977,-0.81993l0,-0.00022zm47.14621,0c-1.18617,0 -2.15916,0.36077 -3.00642,0.95659c-0.8418,0.59581 -1.51414,1.32283 -2.04984,2.18649c-0.54115,0.86913 -0.98939,1.76559 -1.2299,2.73311c-0.25145,0.96752 -0.40975,1.83666 -0.40975,2.59647c0,0.94565 0.19678,1.91317 0.40975,3.00642c0.21296,1.08777 0.59035,2.08809 1.09325,3.00643c0.50835,0.91833 1.18617,1.70546 2.04983,2.32315c0.86913,0.61221 1.86399,0.95658 3.14308,0.95658c1.23537,0 2.29035,-0.34459 3.14309,-0.95658c0.85273,-0.61769 1.53053,-1.38843 2.04983,-2.32315c0.51929,-0.93473 0.8582,-1.91319 1.09324,-3.00643c0.23483,-1.08778 0.40976,-2.08263 0.40976,-3.00642c0,-0.78168 -0.0494,-1.62348 -0.27332,-2.59647c-0.22958,-0.97845 -0.70514,-1.88038 -1.2299,-2.73311c-0.51383,-0.8582 -1.1971,-1.60708 -2.04983,-2.18649c-0.85274,-0.58489 -1.88586,-0.95659 -3.14309,-0.95659l0.00022,0zm17.35528,0c-1.02766,0 -1.91318,0.28949 -2.73311,0.81993c-0.81994,0.52477 -1.48135,1.23537 -2.04984,2.04984c-0.57943,0.80354 -1.04952,1.73827 -1.36656,2.73312c-0.31704,1.00032 -0.54662,1.92411 -0.54662,2.86977c0,1.1479 0.17492,2.30674 0.40975,3.41639c0.23483,1.1151 0.57941,2.13182 1.09325,3.00642c0.51928,0.8746 1.20803,1.50869 2.04983,2.04984c0.84179,0.53569 1.92411,0.81993 3.14308,0.81993c0.55756,0 1.12058,-0.0262 1.63987,-0.13643c0.51929,-0.0985 0.95113,-0.27331 1.36655,-0.40976c0.41543,-0.13643 0.67782,-0.2733 0.9566,-0.40975l0.68327,-0.2733l-0.81994,-1.91318l-0.54662,0.40974l-0.95658,0.40975c-0.34984,0.1312 -0.71062,0.18585 -1.09325,0.27332c-0.38264,0.0927 -0.73247,0.13643 -1.09324,0.13643c-0.75981,0 -1.50322,-0.24052 -2.04984,-0.68327c-0.55209,-0.4373 -1.01672,-0.9402 -1.36656,-1.63987c-0.34984,-0.68875 -0.52475,-1.57428 -0.68327,-2.45981c-0.15831,-0.88553 -0.27332,-1.72186 -0.27332,-2.59645c0,-0.71608 0.0765,-1.4267 0.27332,-2.1865c0.18585,-0.76527 0.45915,-1.54694 0.81993,-2.18649c0.36077,-0.63955 0.84179,-1.09871 1.36656,-1.50321c0.53022,-0.39926 1.10418,-0.68328 1.77652,-0.68328l1.09325,0.13644l0.95658,0.40974l0.95659,0.40975l0.40976,0.27332l0.81992,-1.91319l-0.54662,-0.40975l-0.95658,-0.2733c-0.37739,-0.12026 -0.75434,-0.31705 -1.22991,-0.40976c-0.47009,-0.0875 -1.00578,-0.13643 -1.50321,-0.13643l0.00044,0zm31.29416,0c-0.74341,0 -1.39935,0.16398 -2.04984,0.40975c-0.65595,0.25145 -1.27363,0.64501 -1.77653,1.09325c-0.50835,0.44823 -0.94019,1.01125 -1.2299,1.63987c-0.29517,0.62861 -0.40975,1.30642 -0.40975,2.04983c0,0.69421 0.15831,1.25724 0.54663,1.77652c0.39357,0.51929 0.90739,0.94019 1.50321,1.36656c0.59582,0.42636 1.21897,0.86366 1.91318,1.2299c0.69967,0.37695 1.31737,0.72155 1.91319,1.09325c0.59581,0.3717 1.10963,0.83633 1.5032,1.2299c0.39357,0.39357 0.68328,0.73794 0.68328,1.2299c0,0.88007 -0.31704,1.55787 -0.95658,2.04984c-0.63955,0.49742 -1.46495,0.81993 -2.32315,0.81993c-0.4045,0 -0.8746,-0.0218 -1.36656,-0.13644c-0.49743,-0.10929 -0.92926,-0.28424 -1.36656,-0.40975c-0.4373,-0.14212 -0.7598,-0.26237 -1.09324,-0.40975l-0.6835,-0.40974l-0.81994,1.91318l0.81994,0.40975c0.32798,0.13643 0.64501,0.2733 1.09325,0.40975c0.44276,0.13643 1.06045,0.18016 1.63987,0.27331c0.56848,0.0875 1.10417,0.13643 1.77652,0.13643c0.76527,0 1.49775,-0.16398 2.18649,-0.40974c0.68874,-0.24621 1.27363,-0.50837 1.77653,-0.95659c0.50835,-0.4537 0.94018,-1.0222 1.2299,-1.63987c0.28992,-0.61768 0.40975,-1.3283 0.40975,-2.04984c0,-0.62861 -0.14213,-1.13698 -0.54663,-1.63987c-0.4045,-0.50836 -0.90739,-0.94019 -1.50321,-1.36656c-0.59035,-0.42637 -1.20257,-0.85819 -1.91318,-1.2299c-0.71062,-0.36646 -1.45402,-0.70514 -2.04984,-1.09324c-0.59035,-0.37739 -1.10417,-0.80354 -1.50322,-1.2299c-0.4045,-0.42637 -0.54662,-0.86914 -0.54662,-1.36657c0,-0.88005 0.34459,-1.65626 0.95659,-2.18649c0.6013,-0.53022 1.3283,-0.81993 2.1865,-0.81993l0.95659,0.13644l1.09325,0.40975l0.81993,0.40975l0.54662,0.2733l0.68328,-1.77652l-0.54663,-0.40975c-0.26763,-0.12025 -0.57395,-0.16398 -0.95658,-0.27331c-0.38264,-0.10929 -0.77074,-0.32272 -1.22991,-0.40975c-0.45916,-0.0931 -0.91285,-0.13643 -1.36655,-0.13643l0.00022,-0.00022zm15.44209,0c-1.03312,0 -1.91318,0.28949 -2.73312,0.81993c-0.81993,0.52477 -1.61253,1.23537 -2.18649,2.04984c-0.57395,0.80354 -0.91286,1.73827 -1.2299,2.73312c-0.31703,1.00032 -0.54662,1.92411 -0.54662,2.86977c0,1.1479 0.17492,2.30674 0.40975,3.41639c0.23483,1.1151 0.57395,2.13182 1.09324,3.00642c0.51383,0.8746 1.20805,1.50869 2.04984,2.04984c0.8418,0.53569 1.79293,0.81993 3.00643,0.81993c0.55755,0 1.12057,-0.0262 1.63987,-0.13643c0.51929,-0.0985 1.08777,-0.27331 1.50321,-0.40976c0.41543,-0.13643 0.67234,-0.2733 0.95658,-0.40975l0.54685,-0.2733l-0.68328,-1.91318l-0.68327,0.40974l-0.81995,0.40975c-0.34983,0.1312 -0.7106,0.18585 -1.09324,0.27332c-0.38263,0.0927 -0.86366,0.13643 -1.2299,0.13643c-0.7598,0 -1.3611,-0.24052 -1.91318,-0.68327c-0.55209,-0.4373 -1.01672,-0.9402 -1.36656,-1.63987c-0.34983,-0.68875 -0.53022,-1.57428 -0.68328,-2.45981c-0.1583,-0.88553 -0.2733,-1.72186 -0.2733,-2.59645c0,-0.71608 0.0822,-1.4267 0.2733,-2.1865c0.1911,-0.76527 0.45917,-1.54694 0.81994,-2.18649c0.36078,-0.63955 0.8418,-1.09871 1.36656,-1.50321c0.52475,-0.39926 1.09871,-0.68328 1.77652,-0.68328l0.95659,0.13644l1.09325,0.40974l0.95658,0.40975l0.40975,0.27332l0.68328,-1.91319l-0.40974,-0.40975l-0.9566,-0.2733c-0.36645,-0.12026 -0.75434,-0.31705 -1.22989,-0.40976c-0.4701,-0.0875 -1.01125,-0.13643 -1.50322,-0.13643zm58.35199,0c-1.03312,0 -1.96238,0.39881 -2.73312,0.95659c-0.78166,0.56849 -1.38295,1.20803 -1.91318,2.04983c-0.52475,0.8418 -0.96205,1.7492 -1.2299,2.73312c-0.26762,0.98939 -0.40975,1.90772 -0.40975,2.73312c0,1.05497 0.20203,2.18649 0.40975,3.27973c0.19111,1.08778 0.4537,2.09357 0.9566,3.00643c0.50835,0.90739 1.1971,1.618 2.04983,2.18649c0.85274,0.57942 1.95144,0.81993 3.27974,0.81993c0.63407,0 1.20804,-0.035 1.77652,-0.13643c0.57395,-0.0985 1.1807,-0.279 1.63987,-0.40976c0.46463,-0.13643 0.76527,-0.2733 1.09325,-0.40975l0.68327,-0.2733l-0.68327,-1.91318l-0.68328,0.40974c-0.28994,0.14738 -0.56302,0.27332 -0.95659,0.40975c-0.39358,0.1312 -0.9074,0.17492 -1.36656,0.27332c-0.46464,0.10363 -0.89099,0.27331 -1.36656,0.27331c-0.78713,0 -1.48682,-0.2462 -2.04983,-0.68328c-0.56302,-0.4373 -1.00579,-0.97845 -1.36656,-1.63987c-0.36078,-0.66688 -0.65048,-1.42122 -0.81993,-2.18649c-0.164,-0.75981 -0.27332,-1.51415 -0.27332,-2.1865l10.11252,0l0,-0.81993c0,-0.89099 -0.0603,-1.88038 -0.2733,-2.86976c-0.20772,-0.9894 -0.60675,-1.89679 -1.09325,-2.73312c-0.48102,-0.8254 -1.12604,-1.50868 -1.91318,-2.04984c-0.78714,-0.53568 -1.72186,-0.81993 -2.86977,-0.81993l0,-0.00022zm-218.37582,0.40975l0,11.61573c0,0.74342 0.20771,1.49229 0.40974,2.18649c0.20203,0.69968 0.53022,1.25177 0.95659,1.77653c0.42637,0.53022 0.97845,1.04405 1.63987,1.36656c0.66142,0.32797 1.39935,0.40974 2.32315,0.40974c0.60675,0 1.1315,-0.16398 1.63987,-0.40974c0.50289,-0.25145 0.98392,-0.50837 1.36655,-0.81994c0.38264,-0.31703 0.72155,-0.64501 0.95659,-0.95658l0.40976,-0.54663l0,2.32315l2.18649,0l0,-16.94531l-2.32315,0l0,12.29901l-0.40975,0.68329l-0.81994,1.09324c-0.36077,0.36076 -0.7598,0.67234 -1.2299,0.95658c-0.47555,0.28425 -0.96205,0.40975 -1.50322,0.40975c-0.58488,0 -1.0987,-0.17492 -1.5032,-0.40975c-0.40406,-0.23526 -0.7104,-0.44822 -0.95638,-0.81993c-0.24575,-0.3717 -0.42068,-0.88552 -0.54662,-1.36656c-0.12025,-0.48648 -0.2733,-0.98392 -0.2733,-1.5032l0,-11.34243l-2.32315,0zm186.53504,0l0,11.61573c0,0.74342 0.0713,1.49229 0.2733,2.18649c0.20205,0.69968 0.52477,1.25177 0.9566,1.77653c0.42068,0.53022 0.97299,1.04405 1.63987,1.36656c0.66142,0.32797 1.40482,0.40974 2.32314,0.40974c0.60675,0 1.26817,-0.16398 1.77653,-0.40974c0.50289,-0.25145 0.85274,-0.50837 1.2299,-0.81994c0.38264,-0.31703 0.72154,-0.64501 0.95659,-0.95658l0.54662,-0.54663l0,2.32315l2.1865,0l0,-16.94531l-2.32315,0l0,12.29901l-0.40975,0.68329l-0.81993,1.09324c-0.36077,0.36076 -0.75434,0.67234 -1.22991,0.95658c-0.47009,0.28425 -1.09324,0.40975 -1.63986,0.40975c-0.57942,0 -0.96752,-0.17492 -1.36656,-0.40975c-0.40975,-0.23526 -0.8418,-0.44822 -1.09325,-0.81993c-0.24576,-0.3717 -0.42636,-0.88552 -0.54662,-1.36656c-0.12595,-0.48648 -0.13644,-0.98392 -0.13644,-1.5032l0,-11.34243l-2.32314,0l-0.00044,0zm-137.74895,1.50321c0.69967,0 1.27909,0.13119 1.77652,0.54662c0.49742,0.42068 0.92925,0.91833 1.2299,1.50322c0.30086,0.58489 0.53569,1.24083 0.68327,1.91317c0.14738,0.67235 0.27332,1.2791 0.27332,1.77654l-7.78938,0c0,-0.56303 0.1041,-1.25177 0.27331,-1.91319c0.16399,-0.66688 0.36646,-1.19163 0.68329,-1.77652c0.31703,-0.59035 0.73247,-1.10965 1.2299,-1.50322c0.49195,-0.38832 0.98938,-0.54662 1.63987,-0.54662zm47.14621,0c0.809,0 1.51415,0.34984 2.04984,0.81994c0.54116,0.47009 1.02765,0.96205 1.36656,1.63987c0.32797,0.67234 0.54662,1.44308 0.68327,2.18649c0.1312,0.7434 0.13645,1.35015 0.13645,1.91318c0,0.67234 -0.0176,1.46494 -0.13645,2.32314c-0.12025,0.85273 -0.35552,1.56335 -0.68327,2.32315c-0.32273,0.74887 -0.81448,1.40482 -1.36656,1.91318c-0.55209,0.52476 -1.21897,0.81993 -2.04984,0.81993c-0.85272,0 -1.49774,-0.29517 -2.04984,-0.81993c-0.55208,-0.50836 -1.05497,-1.16431 -1.36655,-1.91318c-0.31704,-0.7598 -0.42068,-1.47042 -0.54662,-2.32315c-0.12595,-0.8582 -0.27332,-1.6508 -0.27332,-2.32314c0,-0.6013 0.12594,-1.30097 0.27332,-2.04984c0.14737,-0.75434 0.34459,-1.38296 0.68327,-2.04983c0.33367,-0.65595 0.8254,-1.3283 1.36657,-1.77653c0.54115,-0.44823 1.12603,-0.68328 1.91317,-0.68328zm122.58017,0c0.68875,0 1.2791,0.13119 1.77653,0.54662c0.48649,0.42068 0.78167,0.91833 1.09325,1.50322c0.30085,0.58489 0.53568,1.24083 0.68328,1.91317c0.14212,0.67235 0.2733,1.2791 0.2733,1.77654l-7.78938,0c0,-0.56303 0.1041,-1.25177 0.27332,-1.91319c0.16923,-0.66688 0.3717,-1.19163 0.68328,-1.77652c0.31704,-0.59035 0.73247,-1.10965 1.2299,-1.50322c0.49742,-0.38832 1.12604,-0.54662 1.77652,-0.54662zm-192.41123,6.69613l0,4.09967l-0.54662,1.09324c-0.26763,0.37172 -0.56303,0.77075 -0.9566,1.09325c-0.39357,0.32797 -0.88552,0.46464 -1.36655,0.68329c-0.4865,0.20771 -0.98392,0.40974 -1.50322,0.40974c-0.8254,0 -1.47587,-0.279 -2.04984,-0.81993c-0.57395,-0.54115 -0.81993,-1.24084 -0.81993,-2.18649c0,-0.4701 0.12026,-0.9566 0.40976,-1.36656c0.29517,-0.40451 0.65047,-0.77621 1.09324,-1.09324c0.4373,-0.3118 0.96205,-0.59582 1.50321,-0.81994c0.53569,-0.22958 1.03312,-0.43161 1.50321,-0.54663l2.73312,-0.54662l0.00022,0.00022zm-1.50322,21.86492l0,9.29258l-0.54662,-0.68328l-0.81993,-0.95659c-0.35553,-0.30085 -0.77074,-0.45916 -1.22991,-0.68328c-0.45916,-0.22432 -0.98392,-0.40975 -1.50321,-0.40975c-0.96752,0 -1.79839,0.32798 -2.59646,0.81994c-0.79807,0.49196 -1.48682,1.09871 -2.04983,1.91318c-0.55756,0.80354 -1.06045,1.73826 -1.36656,2.73312c-0.30611,1.00032 -0.40975,1.99517 -0.40975,3.00642c0,1.09324 0.16924,2.16463 0.40975,3.27974c0.23483,1.10964 0.57395,2.11543 1.09324,3.00642c0.5193,0.88554 1.10418,1.63441 1.91318,2.18649c0.80354,0.5521 1.83666,0.81994 3.00643,0.81994c0.49743,0 1.02218,-0.17492 1.50321,-0.40975c0.4865,-0.23527 0.83634,-0.50289 1.22991,-0.81994c0.39356,-0.31178 0.7106,-0.63955 0.95658,-0.95658l0.54663,-0.68328l0,2.4598l2.18649,0l0,-23.91474l-2.32315,0l0,-0.00044zm175.60259,0l0,23.50477c0.20772,0.0489 0.48102,0.18585 0.95659,0.27332c0.4701,0.0927 0.96205,0.18585 1.50321,0.27331c0.54116,0.0927 1.10964,0.0765 1.63987,0.13644c0.52476,0.0547 1.03312,0.13644 1.36656,0.13644c1.2135,0 2.21929,-0.25714 3.14308,-0.81995c0.91832,-0.55755 1.69999,-1.29549 2.32314,-2.18648c0.63409,-0.88553 1.05499,-1.90226 1.36656,-3.00643c0.3118,-1.09871 0.54663,-2.18102 0.54663,-3.27974c0,-0.94018 -0.17492,-2.0061 -0.40975,-3.00642c-0.23483,-0.99485 -0.57942,-1.78199 -1.09325,-2.59645c-0.51929,-0.80355 -1.23537,-1.52509 -2.04984,-2.04984c-0.80353,-0.53023 -1.72185,-0.81993 -2.86977,-0.81993c-0.51382,0 -1.03858,0.17491 -1.5032,0.40974c-0.47557,0.24052 -0.8582,0.50836 -1.2299,0.81994l-0.9566,0.95658l-0.40975,0.54662l0,-9.29258l-2.32314,0l-0.00044,0.00066zm-92.10595,0.81993c-0.44823,0 -0.80353,0.24577 -1.09324,0.54662c-0.29519,0.30043 -0.40975,0.66142 -0.40975,1.09325c0,0.42068 0.11506,0.78714 0.40975,1.09324c0.28993,0.30611 0.64501,0.40975 1.09324,0.40975c0.44823,0 0.78714,-0.10409 1.09324,-0.40975c0.30087,-0.3061 0.54663,-0.67235 0.54663,-1.09324c0,-0.43161 -0.24576,-0.79261 -0.54663,-1.09325c-0.3061,-0.30085 -0.64501,-0.54662 -1.09324,-0.54662zm5.73955,0c-0.44824,0 -0.80355,0.24577 -1.09325,0.54662c-0.28994,0.30043 -0.40975,0.66142 -0.40975,1.09325c0,0.42068 0.12025,0.78714 0.40975,1.09324c0.28992,0.30611 0.64501,0.40975 1.09325,0.40975c0.45369,0 0.92925,-0.10409 1.22989,-0.40975c0.30086,-0.3061 0.40976,-0.67235 0.40976,-1.09324c0,-0.43161 -0.10929,-0.79261 -0.40976,-1.09325c-0.30086,-0.30085 -0.7762,-0.54662 -1.22989,-0.54662zm-132.82936,0.54662l0,22.54819l5.73954,0c1.05499,0 1.92957,-0.11506 2.86977,-0.40975c0.94566,-0.28992 1.89132,-0.809 2.59646,-1.36655c0.71061,-0.54662 1.23537,-1.10418 1.63987,-1.91319c0.4045,-0.809 0.54662,-1.72185 0.54662,-2.7331c0,-0.69969 -0.15306,-1.43216 -0.40975,-2.04984c-0.26237,-0.61768 -0.51929,-1.1643 -0.95659,-1.63987c-0.44276,-0.4701 -0.92925,-0.7926 -1.50321,-1.09325c-0.56849,-0.31179 -1.27909,-0.56848 -1.91318,-0.68327c0.4537,-0.13644 1.02219,-0.38263 1.50321,-0.68328c0.4865,-0.30087 0.8254,-0.65049 1.2299,-1.09325c0.4045,-0.4373 0.81993,-0.95659 1.09325,-1.50321c0.26763,-0.55209 0.40975,-1.03312 0.40975,-1.63987c0,-0.96753 -0.17492,-1.88585 -0.54662,-2.59646c-0.3717,-0.70514 -0.88554,-1.31736 -1.50322,-1.77652c-0.61768,-0.45917 -1.36655,-0.72701 -2.18649,-0.95659c-0.81993,-0.22434 -1.5852,-0.40975 -2.4598,-0.40975l-6.14951,0l0,-0.00044zm94.83907,0l5.19291,22.54819l2.73312,0l4.78295,-19.4051l4.9196,19.4051l2.73311,0l5.19293,-22.54819l-2.45982,0l-4.09966,19.40511l-4.78295,-19.40511l-2.73311,0l-4.78296,19.40511l-4.09967,-19.40511l-2.59645,0zm59.58189,1.09325l0,4.50963l-2.73312,0l0,1.91318l2.73312,0l0,11.75239c0,0.47557 0.14736,0.91833 0.2733,1.36657c0.12027,0.4537 0.26763,0.88552 0.54663,1.2299c0.28424,0.34983 0.62861,0.61768 1.09324,0.81993c0.45917,0.20203 1.10418,0.27331 1.77652,0.27331l0.68328,-0.13644l0.81994,-0.13644l0.68328,-0.13643l0.40975,-0.13643l-0.68328,-1.91319c-0.13644,0.0875 -0.4373,0.15305 -0.81994,0.27332c-0.38263,0.1255 -0.63955,0.2733 -0.95658,0.2733c-0.5193,0 -0.8746,-0.24619 -1.09325,-0.68327c-0.20772,-0.4373 -0.40975,-0.89647 -0.40975,-1.36655l0,-11.47909l3.41639,0l0,-1.91318l-3.41639,0l0,-4.50964l-2.32314,0l0,-0.00087zm11.61573,0l0,4.50963l-2.86977,0l0,1.91318l2.86977,0l0,11.75239c0,0.47557 0.009,0.91833 0.13644,1.36657c0.12593,0.4537 0.27331,0.88552 0.54662,1.2299c0.28424,0.34983 0.63408,0.61768 1.09324,0.81993c0.46464,0.20203 1.10419,0.27331 1.77653,0.27331l0.68328,-0.13644l0.81993,-0.13644l0.68327,-0.13643l0.40976,-0.13643l-0.68284,-1.91319c-0.13644,0.0875 -0.30087,0.15305 -0.68328,0.27332c-0.38264,0.1255 -0.77621,0.2733 -1.09324,0.2733c-0.51383,0 -0.88007,-0.24619 -1.09325,-0.68327c-0.21297,-0.4373 -0.27332,-0.89647 -0.27332,-1.36655l0,-11.47909l3.27974,0l0,-1.91318l-3.27974,0l0,-4.50964l-2.32314,0l0,-0.00087zm-163.57689,0.95659l3.68971,0c1.25723,0 2.21929,0.27856 3.00642,0.95659c0.78167,0.66688 1.2299,1.59067 1.2299,2.73311c0,0.58489 -0.16398,1.14244 -0.40974,1.63987c-0.24577,0.49196 -0.55209,1.01125 -0.95659,1.36656c-0.4045,0.36077 -0.85273,0.61768 -1.36657,0.81993c-0.51382,0.20203 -1.07684,0.27332 -1.63985,0.27332l-3.55306,0l0,-7.78938l-0.00022,0zm20.3617,3.14307c-0.58488,0 -1.20257,0.13645 -1.77652,0.27332c-0.57395,0.13644 -1.03312,0.23483 -1.50321,0.40975c-0.47009,0.18016 -0.89099,0.38832 -1.22991,0.54663l-0.68327,0.2733l0.68327,1.91318l0.68329,-0.40974c0.32272,-0.17492 0.68873,-0.37739 1.09323,-0.54663c0.40452,-0.16967 0.78168,-0.27331 1.22992,-0.40975c0.45369,-0.13643 0.87459,-0.27331 1.2299,-0.27331c1.2135,0 2.14275,0.47009 2.73311,1.22991c0.59581,0.74887 0.81993,1.6344 0.81993,2.7331l0,1.09325l-3.27974,0.81994c-0.65595,0.13643 -1.2955,0.3717 -2.04983,0.68327c-0.74887,0.31705 -1.41029,0.64502 -2.04984,1.09325c-0.63955,0.44823 -1.2299,1.03312 -1.63987,1.63987c-0.42068,0.60675 -0.68327,1.19164 -0.68327,1.91318c0,1.50321 0.55209,2.72218 1.50321,3.55305c0.95659,0.83086 2.20835,1.2299 3.6897,1.2299c0.62862,0 1.22444,-0.17492 1.77652,-0.40975c0.5521,-0.23527 0.9402,-0.50289 1.36657,-0.81994c0.42636,-0.3061 0.83633,-0.63955 1.09324,-0.95658l0.40974,-0.68328l0,2.4598l2.1865,0l0,-11.75239c0,-1.84212 -0.48103,-3.14308 -1.50321,-4.09967c-1.02219,-0.95112 -2.38874,-1.50322 -4.09968,-1.50322l0.00022,-0.00044zm33.61731,0c-1.03312,0 -1.96238,0.26239 -2.73311,0.81994c-0.77621,0.56303 -1.52508,1.3447 -2.04984,2.1865c-0.52476,0.8418 -0.8254,1.73825 -1.09325,2.73311c-0.26763,0.98938 -0.40974,1.90225 -0.40974,2.73311c0,1.05499 0.0713,2.04984 0.27331,3.14309c0.20203,1.08777 0.59035,2.09902 1.09324,3.00642c0.5029,0.91286 1.1971,1.74919 2.04984,2.32314c0.85273,0.5685 1.95144,0.81994 3.27973,0.81994c0.62862,0 1.20257,-0.0394 1.77652,-0.13644c0.57397,-0.1041 1.04406,-0.27331 1.50322,-0.40974c0.45917,-0.1312 0.90193,-0.279 1.2299,-0.40975l0.68329,-0.27332l-0.68329,-1.91318l-0.81993,0.40976c-0.29517,0.15305 -0.56302,0.27855 -0.95659,0.40975c-0.39357,0.14212 -0.77073,0.16398 -1.2299,0.2733c-0.45917,0.0984 -1.02765,0.13644 -1.50322,0.13644c-0.78713,0 -1.35562,-0.10929 -1.91317,-0.54663c-0.56303,-0.4373 -1.14791,-1.10963 -1.50322,-1.77652c-0.36077,-0.65595 -0.51383,-1.28456 -0.68328,-2.04983c-0.16923,-0.75981 -0.2733,-1.51414 -0.2733,-2.18649l10.11251,0l0,-0.81994c0,-0.90193 -0.19678,-1.88038 -0.40974,-2.86977c-0.21297,-0.98938 -0.4701,-1.89678 -0.95659,-2.73312c-0.48103,-0.83085 -1.12605,-1.50867 -1.91318,-2.04983c-0.78714,-0.53569 -1.72734,-0.81994 -2.86977,-0.81994l-0.00044,0zm17.76524,0c-0.58488,0 -1.12604,0.15831 -1.63987,0.40976c-0.51382,0.24575 -1.0987,0.51382 -1.5032,0.81994c-0.39926,0.31703 -0.70515,0.65047 -0.9566,0.95658l-0.40975,0.54662l0,-2.32314l-2.18649,0l0,16.9453l2.32314,0l0,-12.16235l0.40976,-0.95659l0.81994,-0.9566c0.3717,-0.34983 0.88005,-0.7106 1.36655,-0.95658c0.48102,-0.24052 0.98392,-0.40975 1.50321,-0.40975c0.54116,0 0.95113,0.16923 1.36656,0.40975c0.41543,0.24576 0.8254,0.56301 1.09324,0.95658c0.27331,0.39358 0.39925,0.88553 0.54663,1.36657c0.14736,0.48648 0.2733,0.91832 0.2733,1.36655l0,11.34242l2.32315,0l0,-11.61573c0,-0.69968 -0.19109,-1.36656 -0.40974,-2.04984c-0.2239,-0.68874 -0.51383,-1.37749 -0.95659,-1.91317c-0.43205,-0.54117 -0.96775,-0.90194 -1.64009,-1.22991c-0.67781,-0.32272 -1.43215,-0.54663 -2.32315,-0.54663l0,0.00022zm73.38412,0c-0.58489,0 -1.18071,0.15307 -1.63987,0.40976c-0.45917,0.24051 -0.89099,0.49742 -1.2299,0.81994l-0.68329,0.95658l-0.40974,0.54662l0,-2.32314l-2.18649,0l0,16.9453l2.32315,0l0,-12.16235l0.2733,-0.68329l0.81994,-1.09324c0.3118,-0.33891 0.69421,-0.55756 1.09325,-0.81993c0.40974,-0.25145 0.78145,-0.40975 1.22968,-0.40975l0.68328,0.13644l0.68327,0.27331l0.68329,-2.04984l-0.68329,-0.40974l-0.95658,-0.13645l0,-0.00022zm34.02727,0c-1.02765,0 -1.95691,0.26239 -2.73311,0.81994c-0.77621,0.56303 -1.38296,1.3447 -1.91318,2.1865c-0.52477,0.8418 -0.96206,1.73825 -1.22991,2.73311c-0.27331,0.98938 -0.40974,1.90225 -0.40974,2.73311c0,1.05499 0.20771,2.04984 0.40974,3.14309c0.20772,1.08777 0.4537,2.09902 0.95659,3.00642c0.5029,0.91286 1.1971,1.74919 2.04984,2.32314c0.85273,0.5685 1.95145,0.81994 3.27973,0.81994c0.62862,0 1.20257,-0.0394 1.77653,-0.13644c0.57396,-0.1041 1.17524,-0.27331 1.63987,-0.40974c0.45369,-0.1312 0.77074,-0.279 1.09324,-0.40975l0.68329,-0.27332l-0.68329,-1.91318l-0.68328,0.40976c-0.29517,0.15305 -0.69967,0.27855 -1.09324,0.40975c-0.38832,0.14212 -0.77073,0.16398 -1.2299,0.2733c-0.45916,0.0984 -0.891,0.13644 -1.36655,0.13644c-0.78168,0 -1.48682,-0.10929 -2.04984,-0.54663c-0.56303,-0.4373 -1.00033,-1.10963 -1.36656,-1.77652c-0.36077,-0.65595 -0.65049,-1.28456 -0.81994,-2.04983c-0.16923,-0.75981 -0.2733,-1.51414 -0.2733,-2.18649l10.11252,0l0,-0.81994c0,-0.90193 -0.0656,-1.88038 -0.27332,-2.86977c-0.21865,-0.98938 -0.60675,-1.89678 -1.09324,-2.73312c-0.48103,-0.83085 -1.12605,-1.50867 -1.91318,-2.04983c-0.78714,-0.53569 -1.72187,-0.81994 -2.86977,-0.81994zm17.35527,0c-0.62861,0 -1.13697,0.15831 -1.63986,0.40976c-0.50836,0.24575 -1.01672,0.49742 -1.36656,0.81994l-0.81993,0.95658l-0.40975,0.54662l0,-2.32314l-2.1865,0l0,16.9453l2.32315,0l0,-12.16235l0.40975,-0.95659l0.68328,-0.9566c0.34459,-0.34983 0.7762,-0.7106 1.2299,-0.95658c0.45916,-0.24052 0.96206,-0.40975 1.50321,-0.40975c0.60675,0 1.10965,0.17492 1.50322,0.40975c0.39356,0.23483 0.71608,0.57395 0.95658,0.95658c0.23483,0.38265 0.44824,0.74342 0.54663,1.2299c0.0984,0.48104 0.13644,1.0058 0.13644,1.50322l0,11.34242l2.32315,0l0,-12.43567l0.2733,-0.95659l0.81994,-0.95658c0.32798,-0.30087 0.76528,-0.4701 1.2299,-0.68328c0.45916,-0.21341 0.91833,-0.40975 1.50321,-0.40975c0.56302,0 1.09871,0.17492 1.50321,0.40975c0.4045,0.23483 0.71608,0.57395 0.9566,0.95658c0.22958,0.38265 0.42636,0.74342 0.54662,1.2299c0.1041,0.48104 0.13644,1.0058 0.13644,1.50322l0,11.34242l2.32314,0l0,-11.61573c0,-0.69968 -0.1041,-1.36656 -0.2733,-2.04984c-0.164,-0.68874 -0.42069,-1.37749 -0.81995,-1.91317c-0.4045,-0.54117 -0.97845,-0.90194 -1.63987,-1.22991c-0.6614,-0.32272 -1.49227,-0.54663 -2.45979,-0.54663c-0.67235,0 -1.2299,0.15831 -1.77653,0.40976c-0.55209,0.24577 -1.10417,0.51382 -1.50321,0.81994c-0.39357,0.31703 -0.58488,0.65047 -0.81993,0.95658l-0.54663,0.54662l-0.40975,-0.68327l-0.81993,-0.9566c-0.35553,-0.30085 -0.81447,-0.45915 -1.36656,-0.68327c-0.55209,-0.22433 -1.21897,-0.40976 -2.04984,-0.40976l0.00022,0.00022zm42.77324,0c-1.03312,0 -1.96237,0.26239 -2.73311,0.81994c-0.77621,0.56303 -1.38296,1.3447 -1.91318,2.1865c-0.52477,0.8418 -0.96752,1.73825 -1.2299,2.73311c-0.27899,0.98938 -0.40975,1.90225 -0.40975,2.73311c0,1.05499 0.20203,2.04984 0.40975,3.14309c0.20203,1.08777 0.4537,2.09902 0.95658,3.00642c0.50837,0.91286 1.19712,1.74919 2.04984,2.32314c0.85273,0.5685 1.94598,0.81994 3.27974,0.81994c0.62315,0 1.1971,-0.0394 1.77652,-0.13644c0.56849,-0.1041 1.18071,-0.27331 1.63987,-0.40974c0.46463,-0.1312 0.76528,-0.279 1.09325,-0.40975l0.68328,-0.27332l-0.68328,-1.91318l-0.68329,0.40976c-0.29517,0.15305 -0.56848,0.27855 -0.95658,0.40975c-0.39357,0.14212 -0.90739,0.16398 -1.36656,0.2733c-0.4537,0.0984 -0.89646,0.13644 -1.36655,0.13644c-0.78168,0 -1.49228,-0.10929 -2.04984,-0.54663c-0.56849,-0.4373 -1.00033,-1.10963 -1.36656,-1.77652c-0.35552,-0.65595 -0.65047,-1.28456 -0.81994,-2.04983c-0.16923,-0.75981 -0.2733,-1.51414 -0.2733,-2.18649l10.11252,0l0,-0.81994c0,-0.90193 -0.0547,-1.88038 -0.27332,-2.86977c-0.21296,-0.98938 -0.61221,-1.89678 -1.09324,-2.73312c-0.48103,-0.83085 -0.98938,-1.50867 -1.77653,-2.04983c-0.78167,-0.53569 -1.86397,-0.81994 -3.00642,-0.81994zm17.08196,0c-0.58488,0 -1.1807,0.15307 -1.63987,0.40976c-0.46462,0.24051 -0.7598,0.49742 -1.09324,0.81994l-0.81993,0.95658l-0.40975,0.54662l0,-2.32314l-2.1865,0l0,16.9453l2.32315,0l0,-12.16235l0.40975,-0.68329l0.68328,-1.09324c0.31179,-0.33891 0.68874,-0.55756 1.09324,-0.81993c0.4045,-0.25145 0.78168,-0.40975 1.2299,-0.40975l0.81994,0.13644l0.54663,0.27331l0.68327,-2.04984l-0.68327,-0.40974l-0.9566,-0.13645l0,-0.00022zm10.11253,0c-0.80354,0 -1.48135,0.21298 -2.1865,0.54663c-0.70514,0.33891 -1.38295,0.81447 -1.91317,1.36656c-0.52477,0.55755 -0.9238,1.08231 -1.2299,1.77652c-0.30612,0.69968 -0.40975,1.46495 -0.40975,2.1865c0,0.96752 0.0262,1.77652 0.2733,2.4598c0.24577,0.68874 0.59036,1.31189 0.9566,1.77652c0.3717,0.45917 0.8254,0.69967 1.2299,0.95659c0.4045,0.2567 0.7762,0.56849 1.09324,0.68328l-0.68327,0.13643l-0.81994,0.54662l-0.54663,0.68329l-0.2733,0.81993c0,0.4045 0.0875,0.79807 0.2733,1.09325l0.68329,0.68327l0.68328,0.40976l0.68327,0.13643c-0.31179,0.0218 -0.73794,0.21865 -1.2299,0.40975c-0.49742,0.18585 -0.89646,0.34984 -1.36656,0.68328c-0.47008,0.33891 -0.88553,0.85819 -1.2299,1.36656c-0.34983,0.50288 -0.54662,0.98938 -0.54662,1.63987c0,0.67234 0.0765,1.34468 0.40975,1.91318c0.3389,0.57395 0.92926,1.08231 1.50322,1.50321c0.59035,0.41543 1.2299,0.71608 2.04982,0.95658c0.82542,0.24577 1.65627,0.40976 2.59647,0.40976c1.06045,0 2.00064,-0.10929 2.86977,-0.40976c0.85819,-0.30085 1.69999,-0.73793 2.32314,-1.2299c0.61769,-0.49195 1.02219,-1.05497 1.36657,-1.63987c0.33365,-0.58488 0.54662,-1.19163 0.54662,-1.77652c0,-0.76527 -0.16399,-1.45948 -0.54662,-2.04984c-0.38265,-0.59581 -0.9894,-1.08777 -1.63987,-1.5032c-0.65595,-0.41544 -1.33377,-0.73795 -2.1865,-0.9566c-0.85274,-0.20772 -1.80932,-0.2733 -2.73311,-0.2733c-0.71608,0 -1.3119,-0.22959 -1.77652,-0.54663c-0.4537,-0.31704 -0.68328,-0.60129 -0.68328,-1.09324l0.2733,-0.68328l0.68328,-0.40975l0.81994,-0.40975l0.68328,-0.13643c0.83087,0 1.60707,-0.0875 2.32314,-0.40975c0.71608,-0.32798 1.40482,-0.80355 1.91318,-1.36657c0.52476,-0.56301 0.94019,-1.29548 1.22991,-2.04983c0.28992,-0.75434 0.40974,-1.46495 0.40974,-2.32314c0,-0.4701 -0.0218,-0.95113 -0.13643,-1.36657c-0.10929,-0.42112 -0.26238,-0.76527 -0.40976,-1.09324l-0.40973,-0.81993l-0.40976,-0.54663l2.73312,0l0,-1.63987l-4.78296,0c-0.20203,-0.0713 -0.49742,-0.17492 -0.95659,-0.2733c-0.46463,-0.10929 -0.98391,-0.13645 -1.5032,-0.13645l-0.00066,-0.00022zm-144.85506,0.40976l0,11.61574c0,0.7434 0.0713,1.49227 0.27332,2.18649c0.20203,0.69967 0.53022,1.25176 0.95658,1.77652c0.42637,0.53023 0.98392,0.90193 1.63987,1.2299c0.66688,0.32797 1.39389,0.54662 2.32315,0.54662c0.60129,0 1.13697,-0.16399 1.63987,-0.40975c0.50289,-0.24619 0.98392,-0.50289 1.36656,-0.81993c0.38263,-0.31179 0.71608,-0.63954 0.95658,-0.95659l0.40976,-0.68328l0,2.4598l2.18649,0l0,-16.94531l-2.32315,0l0,12.16237l-0.27332,0.81993l-0.95658,1.09324c-0.35509,0.36078 -0.75959,0.67782 -1.22969,0.9566c-0.47008,0.28423 -0.96752,0.40974 -1.5032,0.40974c-0.5849,0 -1.09872,-0.17491 -1.50322,-0.40974c-0.4045,-0.23527 -0.70515,-0.44824 -0.95659,-0.81994c-0.24576,-0.3717 -0.42636,-0.88553 -0.54663,-1.36656c-0.12593,-0.48649 -0.13643,-0.98939 -0.13643,-1.50321l0,-11.34243l-2.32315,0l-0.00022,-0.00021zm-67.64457,1.36656c0.69421,0 1.2791,0.26238 1.77653,0.68328c0.49195,0.41542 0.92379,0.92379 1.22989,1.5032c0.30087,0.58489 0.5357,1.24084 0.68328,1.91319c0.14212,0.67234 0.13643,1.28455 0.13643,1.77652l-7.78936,0c0,-0.55755 0.10409,-1.2463 0.2733,-1.91318c0.16924,-0.65594 0.36647,-1.19164 0.68328,-1.77653c0.31179,-0.59035 0.73247,-1.10963 1.22991,-1.5032c0.49196,-0.39358 1.12603,-0.68328 1.77652,-0.68328l0.00022,0zm125.17663,0c0.69421,0 1.28456,0.26238 1.77652,0.68328c0.49743,0.41542 0.9238,0.92379 1.2299,1.5032c0.30087,0.58489 0.5357,1.24084 0.68328,1.91319c0.14212,0.67234 0.27332,1.28455 0.27332,1.77652l-7.78938,0c0,-0.55755 0.10929,-1.2463 0.2733,-1.91318c0.16925,-0.65594 0.37172,-1.19164 0.68329,-1.77653c0.31704,-0.59035 0.73248,-1.10963 1.2299,-1.5032c0.49196,-0.39358 0.98392,-0.68328 1.63987,-0.68328zm60.26516,0c0.69968,0 1.2791,0.26238 1.77653,0.68328c0.49742,0.41542 0.78714,0.92379 1.09324,1.5032c0.30087,0.58489 0.5357,1.24084 0.68328,1.91319c0.14737,0.67234 0.27332,1.28455 0.27332,1.77652l-7.78938,0c0,-0.55755 0.10929,-1.2463 0.27332,-1.91318c0.16923,-0.65594 0.3717,-1.19164 0.68327,-1.77653c0.31705,-0.59035 0.73248,-1.10963 1.2299,-1.5032c0.49197,-0.39358 1.12605,-0.68328 1.77652,-0.68328zm27.05784,0c1.08232,0 1.98424,0.34415 2.59646,1.09325c0.62315,0.75433 0.95658,1.77105 0.95658,3.00642c0,0.51382 -0.15305,0.97298 -0.2733,1.5032c-0.12595,0.52477 -0.27332,1.07139 -0.54663,1.50322c-0.28424,0.42068 -0.65594,0.81994 -1.09324,1.09325c-0.4373,0.28424 -1.01125,0.40975 -1.63987,0.40975c-0.64502,0 -1.1971,-0.17492 -1.63987,-0.40975c-0.4373,-0.23527 -0.68328,-0.5521 -0.9566,-0.9566c-0.26761,-0.4045 -0.56302,-0.81446 -0.68327,-1.36655c-0.12594,-0.54662 -0.13644,-1.16977 -0.13644,-1.77652c0,-0.54116 0.11495,-1.01125 0.27331,-1.50322c0.15306,-0.49742 0.38832,-0.98392 0.68329,-1.36655c0.29517,-0.38264 0.6614,-0.73248 1.09324,-0.9566c0.43729,-0.22433 0.83086,-0.2733 1.36656,-0.2733l-0.00022,0zm-229.17163,0.13643c0.54116,0 1.04952,0.12551 1.50322,0.40975c0.44822,0.29518 0.7598,0.71061 1.09324,1.09325c0.33891,0.38263 0.61768,0.71607 0.81993,1.09325l0.40975,0.81993l0,7.24275l-0.40975,0.81993l-0.81993,1.09325c-0.3389,0.36077 -0.76527,0.68874 -1.2299,0.95659c-0.45916,0.27331 -0.86913,0.40975 -1.36656,0.40975c-0.78713,0 -1.50868,-0.21341 -2.04983,-0.68329c-0.53569,-0.47008 -0.891,-1.05497 -1.22991,-1.77652c-0.33365,-0.71607 -0.67781,-1.5852 -0.81993,-2.4598c-0.14737,-0.8746 -0.13643,-1.67267 -0.13643,-2.4598c0,-0.90193 0.0713,-1.80932 0.2733,-2.59646c0.20203,-0.7926 0.4537,-1.45948 0.81994,-2.04984c0.37171,-0.60128 0.84726,-1.03311 1.36656,-1.36655c0.51382,-0.3446 1.12604,-0.54663 1.77652,-0.54663l-0.00022,0.00044zm185.57846,0c0.73794,0 1.38842,0.29518 1.91317,0.68328c0.52477,0.39357 1.02219,0.86913 1.36657,1.50322c0.34983,0.62314 0.51382,1.27362 0.68327,2.04982c0.16923,0.77075 0.27331,1.58522 0.27331,2.32315c0,0.78714 -0.0494,1.58521 -0.27331,2.45981c-0.21865,0.8746 -0.66688,1.74919 -1.09324,2.4598c-0.42637,0.72701 -0.891,1.30642 -1.50322,1.77652c-0.62315,0.47557 -1.25723,0.68329 -2.04983,0.68329l-0.81994,-0.13645l-0.95658,0l-0.81994,-0.13643l-0.54663,-0.13643l0,-10.24918l0.40975,-0.81994l0.81993,-1.09325c0.36078,-0.34459 0.79807,-0.68327 1.22991,-0.95659c0.44276,-0.26806 0.91833,-0.40974 1.36656,-0.40974l0.00022,-0.00088zm-140.75539,4.09967l0,2.18649l7.1061,0l0,-2.18649l-7.1061,0zm-82.13008,0.54662l3.68971,0c1.41575,0 2.5254,0.33891 3.41639,1.09325c0.88553,0.74887 1.36655,1.84212 1.36655,3.14309c0,0.67233 -0.16398,1.2135 -0.40974,1.77652c-0.24577,0.56302 -0.65048,1.10418 -1.09324,1.50321c-0.4373,0.4045 -0.91834,0.73247 -1.50322,0.95659c-0.58489,0.2239 -1.12604,0.27332 -1.77652,0.27332l-3.68971,0l0,-8.74598l-0.00022,0zm23.64144,2.04984l0,4.09967l-0.54662,1.09325c-0.26763,0.37695 -0.56303,0.62862 -0.9566,0.95659c-0.39356,0.32229 -0.88552,0.60675 -1.36655,0.81993c-0.4865,0.21296 -0.98392,0.40975 -1.50322,0.40975c-0.83085,0 -1.47587,-0.27899 -2.04982,-0.81994c-0.57396,-0.53568 -0.81994,-1.37748 -0.81994,-2.32314c0,-0.47556 0.12026,-0.83087 0.40975,-1.2299c0.29517,-0.4045 0.65594,-0.78167 1.09324,-1.09325c0.44277,-0.31704 0.96206,-0.59035 1.50322,-0.81993c0.53568,-0.21865 1.03311,-0.43162 1.5032,-0.54662l2.73312,-0.54662l0.00022,0.00021zm242.8372,8.47266c1.35015,0 2.53086,0.25145 3.41639,0.81993c0.891,0.57395 1.36655,1.30642 1.36655,2.18649c0,0.39881 -0.17491,0.8418 -0.40974,1.2299c-0.24052,0.39357 -0.53569,0.7926 -0.95659,1.09325c-0.43161,0.3061 -0.94019,0.48649 -1.50322,0.68327c-0.55755,0.18585 -1.23537,0.27332 -1.91317,0.27332c-0.64502,0 -1.2299,-0.0931 -1.77653,-0.27332c-0.53569,-0.17491 -0.98392,-0.38263 -1.36656,-0.68327c-0.37738,-0.30611 -0.60675,-0.69968 -0.81993,-1.09325c-0.20772,-0.38832 -0.40975,-0.809 -0.40975,-1.2299c0,-0.43161 0.16399,-0.86367 0.40975,-1.2299c0.24576,-0.3717 0.55209,-0.68874 0.95659,-0.95659c0.39925,-0.26807 0.8418,-0.38832 1.36656,-0.54663c0.53022,-0.1583 1.08231,-0.2733 1.63987,-0.2733l-0.00022,0z"/>
  <path fill-rule="nonzero" fill="#e2001a" id="path242" d="m233.3147,47.59959c-0.97298,0 -1.74372,0.1911 -2.32314,0.81994c-0.57395,0.61221 -0.81993,1.48135 -0.81993,2.4598l0,81.99343c0,0.97298 0.24576,1.69999 0.81993,2.32314c0.56849,0.61222 1.35016,0.9566 2.32314,0.9566l22.27489,0c6.11124,0 11.572,-1.10965 16.53534,-3.4164c4.97427,-2.29581 9.25978,-5.58648 12.70898,-9.70256c3.45466,-4.12153 6.15497,-8.95368 8.06269,-14.62215c1.90225,-5.66302 2.73311,-11.80707 2.73311,-18.44853c0,-6.36816 -0.91286,-12.18422 -2.86977,-17.35528c-1.94598,-5.18197 -4.69549,-9.66975 -8.19934,-13.39225c-3.49292,-3.72251 -7.74018,-6.57588 -12.70899,-8.60931c-4.95786,-2.03891 -10.3749,-3.00643 -16.39868,-3.00643l-22.13823,0zm80.62688,0c-0.96752,0 -1.74374,0.1911 -2.32315,0.81994c-0.56849,0.61221 -0.95659,1.48135 -0.95659,2.4598l0,81.99343c0,0.97298 0.38832,1.69999 0.95659,2.32314c0.57941,0.61222 1.35563,0.9566 2.32315,0.9566l9.15593,0c0.96752,0 1.71639,-0.33892 2.32315,-0.9566c0.61767,-0.61768 0.95659,-1.35016 0.95659,-2.32314l0,-36.48709l30.61088,0l0,36.48709c0,0.97298 0.38832,1.70546 0.95658,2.32314c0.56849,0.61768 1.21351,0.9566 2.18649,0.9566l9.15593,0c0.97847,0 1.84212,-0.3446 2.45981,-0.9566c0.61768,-0.62315 0.95658,-1.35016 0.95658,-2.32314l0,-81.99343c0,-0.97845 -0.3389,-1.84759 -0.95658,-2.4598c-0.61769,-0.62862 -1.48134,-0.81994 -2.45981,-0.81994l-9.15593,0c-0.97298,0 -1.618,0.1911 -2.18649,0.81994c-0.56848,0.61221 -0.95658,1.48135 -0.95658,2.4598l0,32.52405l-30.61088,0l0,-32.52405c0,-0.97845 -0.33892,-1.84759 -0.95659,-2.4598c-0.60676,-0.62862 -1.35563,-0.81994 -2.32315,-0.81994l-9.15593,0zm-68.19121,12.29902l9.97587,0c3.72797,0 7.04597,0.7762 9.97588,2.32314c2.92442,1.55787 5.43889,3.62957 7.51606,6.28616c2.08262,2.65659 3.71156,5.88713 4.78294,9.5659c1.06045,3.67877 1.50322,7.63633 1.50322,11.88905c0,4.96334 -0.48103,9.39645 -1.63987,13.52892c-1.15338,4.11059 -2.88617,7.77843 -5.05626,10.7958c-2.17557,3.01189 -4.77202,5.28584 -7.78938,6.96943c-3.02282,1.6836 -6.39549,2.59647 -10.11253,2.59647l-9.15593,0l0,-63.95487z"/>
 </g>
</svg>